<?xml version="1.0" encoding="utf-8"?>
<!-- Generator: Adobe Illustrator 25.4.8, SVG Export Plug-In . SVG Version: 6.00 Build 0)  -->
<!DOCTYPE svg PUBLIC "-//W3C//DTD SVG 1.1//EN" "http://www.w3.org/Graphics/SVG/1.1/DTD/svg11.dtd" [
	<!ENTITY ns_extend "http://ns.adobe.com/Extensibility/1.0/">
	<!ENTITY ns_ai "http://ns.adobe.com/AdobeIllustrator/10.0/">
	<!ENTITY ns_graphs "http://ns.adobe.com/Graphs/1.0/">
	<!ENTITY ns_vars "http://ns.adobe.com/Variables/1.0/">
	<!ENTITY ns_imrep "http://ns.adobe.com/ImageReplacement/1.0/">
	<!ENTITY ns_sfw "http://ns.adobe.com/SaveForWeb/1.0/">
	<!ENTITY ns_custom "http://ns.adobe.com/GenericCustomNamespace/1.0/">
	<!ENTITY ns_adobe_xpath "http://ns.adobe.com/XPath/1.0/">
]>
<svg version="1.1" id="圖層_1" xmlns:x="&ns_extend;" xmlns:i="&ns_ai;" xmlns:graph="&ns_graphs;"
	 xmlns="http://www.w3.org/2000/svg" xmlns:xlink="http://www.w3.org/1999/xlink" x="0px" y="0px" width="494.6px" height="44px"
	 viewBox="0 0 494.6 44" style="enable-background:new 0 0 494.6 44;" xml:space="preserve">
<style type="text/css">
	.st0{display:none;}
	.st1{fill:#FFFFFF;}
	.st2{fill:#7DB33D;}
	.st3{fill:#7DB33D;stroke:#85C538;stroke-width:0.311;}
	.st4{fill:#007DC6;}
	.st5{fill:none;stroke:#338BBC;stroke-width:0.311;}
	.st6{fill:none;stroke:#FFFFFF;}
</style>
<metadata>
	<sfw  xmlns="&ns_sfw;">
		<slices></slices>
		<sliceSourceBounds  bottomLeftOrigin="true" height="44" width="16383" x="-7840" y="0"></sliceSourceBounds>
	</sfw>
</metadata>
<rect x="1.1" class="st0" width="701.5" height="44"/>
<g id="行政院環境保護署_環境檢驗所_Environmental_Protection_Administration_Executive_Yuan">
	<g>
		<g>
			<path class="st1" d="M54.5,7.8c-0.6,1.1-1.4,2.1-2.2,3v10.4h-1.5v-8.7c-0.7,0.7-1.4,1.4-2.3,2.1c-0.4-0.5-0.6-0.8-1-1.3
				c2.3-1.6,4.1-3.7,5.6-5.9L54.5,7.8z M53.7,3.6c-1.4,1.9-3.2,3.5-5,5c-0.3-0.5-0.5-0.8-0.9-1.2c1.7-1.2,3.2-2.6,4.5-4.3L53.7,3.6z
				 M65.9,11.1h-3v8.2c0,0.9-0.2,1.4-0.9,1.6c-1.3,0.3-2.5,0.3-3.7,0.2c-0.1-0.5-0.3-1-0.5-1.4c1.4,0,2.7,0,3.1,0s0.5-0.1,0.5-0.5
				v-8.1h-6.6V9.7h11.1V11.1z M65.2,5.7h-9.6V4.4h9.6V5.7z"/>
			<path class="st1" d="M84.6,8.1c-0.4,2.9-1.3,5.6-2.6,8.1c1,1.6,2.4,2.9,4.1,3.7c-0.4,0.4-0.7,0.8-1,1.3c-1.6-0.8-3-2.1-4-3.6
				c-1.2,1.5-2.7,2.8-4.5,3.7c-0.3-0.5-0.5-0.9-0.8-1.4c1.8-0.8,3.3-2.2,4.5-3.8c-0.9-1.8-1.6-3.7-2.1-5.6c-0.4,0.7-0.8,1.4-1.3,2.2
				c-0.4-0.4-0.7-0.7-1.2-1l0.1-0.2h-2.3v5l3.4-0.8l0.1,1.4c-3.2,0.8-6.8,1.6-9.2,2.2l-0.3-1.4l1.2-0.3V8.9h1.4v8.5l2-0.4V5.9H68
				V4.5h9.1V6h-3.4v4.3h2.7V11c1.4-2.4,2.3-5,2.8-7.8l1.4,0.3c-0.3,1.2-0.5,2.3-0.8,3.4H86v1.4L84.6,8.1L84.6,8.1z M79.2,8.5
				c0.4,2.2,1.1,4.3,2,6.3c1-2.1,1.7-4.3,2-6.7h-3.8L79.2,8.5z"/>
			<path class="st1" d="M94.3,4.4c-0.6,1.6-1.4,3.5-2,5.1c1.2,1.2,1.8,2.7,1.8,4.3c0.1,0.8-0.2,1.7-0.8,2.3c-0.3,0.2-0.6,0.4-1,0.4
				c-0.5,0-0.9,0-1.4,0c0-0.5-0.2-0.9-0.4-1.4c0.4,0,0.8,0,1.2,0c0.2,0,0.4,0,0.5-0.1c0.4-0.4,0.5-0.9,0.5-1.4c-0.1-1.5-0.7-3-1.8-4
				c0.5-1.4,1.2-3.2,1.5-4.5h-2.6v15.9h-1.3V3.9h4.5l0.3-0.1L94.3,4.4z M104.3,19.7c0.5,0,0.5-0.4,0.5-2.5c0.4,0.3,0.8,0.5,1.3,0.5
				c-0.1,2.6-0.5,3.2-1.7,3.2h-1.7c-1.4,0-1.7-0.5-1.7-1.8v-5.2h-2.1c-0.4,3.6-1.3,5.9-5,7.2c-0.2-0.5-0.5-0.8-0.8-1.2
				c3.4-1.1,4.2-3,4.5-6.1h-2.8v-1.4h11.2v1.4h-3.5v5.1c0,0.5,0.1,0.5,0.5,0.5L104.3,19.7L104.3,19.7z M96,9h-1.4V5.5h5
				c-0.3-0.7-0.6-1.4-1-2.2l1.4-0.5c0.5,0.8,0.9,1.6,1.3,2.4l-0.5,0.2h5v3.4h-1.4V6.9H96V9L96,9z M96.2,10.4V9h7.9v1.4H96.2z"/>
			<path class="st1" d="M113.2,17.4c-1.8,0.5-3.8,1.2-5.3,1.6l-0.3-1.4c0.6-0.2,1.4-0.4,2.3-0.6v-5.6h-1.8v-1.4h1.8V5.8h-2.1V4.4
				h5.3v1.4h-1.9v4.4h1.7v1.4h-1.7v5.2l1.8-0.5L113.2,17.4z M125.5,16.5c-0.9,0.5-1.8,1.1-2.8,1.5c1,0.9,2.2,1.5,3.4,1.9
				c-0.4,0.4-0.6,0.7-0.9,1.1c-2.6-0.9-4.7-3-5.6-5.6c-0.7,0.6-1.5,1.3-2.4,1.7v2.3l3.3-0.7c0,0.4,0,0.7,0,1.1
				c-3.8,1-4.3,1.2-4.7,1.4c-0.1-0.4-0.3-0.7-0.5-1.1c0.5-0.3,0.7-0.7,0.6-1.3v-1c-0.7,0.4-1.4,0.6-2.2,0.9c-0.3-0.4-0.5-0.7-0.8-1
				c1.8-0.5,3.5-1.3,5.1-2.3h-3v-4.1h9.4v4.1h-3.6c0.3,0.7,0.7,1.4,1.2,1.9c0.9-0.5,1.7-1,2.5-1.6L125.5,16.5z M125.7,10.2h-11.9V9
				h11.9V10.2L125.7,10.2z M125,8h-10.4V3.8H125V8z M117.7,4.9h-1.9v2h1.9V4.9z M116.5,14.3h6.6v-1.9h-6.6
				C116.5,12.4,116.5,14.3,116.5,14.3z M120.7,4.9h-2v2h2V4.9z M123.7,4.9h-2v2h2V4.9z"/>
			<path class="st1" d="M134,16.2c-2,0.8-4.1,1.6-5.8,2.3l-0.5-1.5c0.7-0.2,1.5-0.5,2.5-0.9V9.1h-2.3V7.9h2.2V3.4h1.4V8h1.9v1.4
				h-1.9v6.4l2.1-0.8L134,16.2z M143.5,19.7c0.3,0,0.5,0,0.7-0.1c0.2-0.1,0.4-0.2,0.4-0.5s0.1-0.9,0.1-1.7c0.4,0.3,0.7,0.5,1.2,0.6
				c0,0.6-0.1,1.3-0.3,1.9c-0.2,0.3-0.5,0.5-0.7,0.6c-0.4,0.1-0.8,0.2-1.2,0.2h-1.4c-0.5,0-0.9-0.1-1.4-0.4
				c-0.4-0.3-0.5-0.5-0.5-1.6v-2.8h-1.8c-0.4,2.9-1.4,4.3-5,5.2c-0.2-0.5-0.5-0.8-0.8-1.2c3.2-0.6,4.1-1.8,4.3-4.1h-2.1v-5.6h9v5.6
				h-2.3v3.1c-0.1,0.2,0,0.5,0.2,0.5c0.2,0.1,0.4,0.1,0.5,0.1C142.6,19.7,143.5,19.7,143.5,19.7z M145.3,9.4h-11V8.1h2.8
				c-0.2-0.6-0.4-1.3-0.6-1.9l1.2-0.3c0.3,0.6,0.5,1.3,0.7,2l-0.7,0.2h3.2c0.4-0.7,0.6-1.4,0.8-2.1l1.4,0.3
				c-0.3,0.6-0.6,1.3-0.9,1.8h3L145.3,9.4L145.3,9.4z M144.8,5.8h-9.9V4.5h4.2c-0.2-0.5-0.4-0.9-0.5-1.4l1.4-0.3
				c0.3,0.5,0.5,1,0.7,1.5h4.1V5.8L144.8,5.8z M136.6,12.7h6.2v-1.3h-6.2V12.7z M136.6,15h6.2v-1.4h-6.2V15z"/>
			<path class="st1" d="M153.9,3.5c-0.5,1.4-1.3,2.9-2.1,4.2v13.3h-1.4V9.9c-0.6,0.9-1.4,1.7-2.1,2.4c-0.3-0.5-0.5-1-0.8-1.4
				c2.2-2.3,3.9-4.9,5-7.8L153.9,3.5z M157.4,15.3c-1,1.7-2.1,3.3-3.3,4.9c-0.4-0.3-0.7-0.6-1.2-0.9c1.3-1.4,2.3-2.8,3.2-4.4
				L157.4,15.3z M160.3,14v7.2h-1.4V14h-5.8v-1.4h5.8v-2.3h-4.3V4h10.2v6.3h-4.5v2.3h5.6V14L160.3,14L160.3,14z M156,8.9h7.4V5.3
				H156V8.9z M162.5,15c1.3,1.4,2.4,2.9,3.4,4.4l-1.2,0.7c-1-1.6-2.1-3.2-3.3-4.6L162.5,15z"/>
			<path class="st1" d="M174.8,7.7h-6.9V6.4h6.9V7.7L174.8,7.7z M174.2,20h-4.3v0.9h-1.3v-6.7h5.6V20z M174.2,10.2h-5.5V9h5.5V10.2z
				 M168.7,11.6h5.5v1.2h-5.5V11.6z M169.9,15.5v3.2h3v-3.2H169.9z M171.5,6.2c-0.4-0.9-0.9-1.8-1.4-2.6l1.1-0.6
				c0.5,0.8,1.1,1.6,1.4,2.5L171.5,6.2z M176.3,10.2c-0.3,0.5-0.6,0.8-1.1,1.2c-0.3-0.4-0.5-0.7-0.8-1.1c1.2-1.2,2.1-2.6,2.6-4.1
				l1.2,0.3V5.5H175V4.4h3.2V3.2h1.4v3.4h-1.3c-0.2,0.5-0.4,0.9-0.5,1.4h2.6c-0.1-0.5-0.3-0.9-0.5-1.3l1.3-0.4
				c0.3,0.5,0.5,1.1,0.6,1.6h3.7v1h-3.9v1h3.3v0.9h-3.3v1h3.3v0.9h-3.3v0.9h4.3v1h-8.4V15h-1.3V10.2L176.3,10.2z M185,15.9
				c-0.7,1.3-1.8,2.3-3.1,3.1c1.4,0.5,2.9,0.9,4.3,1.1c-0.4,0.4-0.6,0.7-0.8,1.2c-1.7-0.3-3.3-0.8-5-1.5c-1.7,0.7-3.5,1.3-5.3,1.5
				c-0.2-0.5-0.4-0.8-0.6-1.2c1.6-0.2,3.2-0.5,4.7-1.1c-0.9-0.5-1.7-1.3-2.3-2.1l0.6-0.2h-2.3v-1.2h8.6h0.2L185,15.9z M180.3,8.9
				h-2.7v1h2.7V8.9z M180.3,10.7h-2.7v1h2.7V10.7z M180.3,12.6h-2.7v1h2.7V12.6L180.3,12.6z M178.2,16.6c0.6,0.7,1.4,1.3,2.3,1.7
				c0.9-0.5,1.7-1,2.4-1.7H178.2L178.2,16.6z M182.9,6.6h-1.4V3.1h1.4v1.3h3v1.2h-3L182.9,6.6L182.9,6.6z"/>
			<path class="st1" d="M199.3,13.2c-0.9,0.5-1.8,0.9-2.8,1.4h7.5v6.6h-1.4v-0.5h-8.7v0.6h-1.4v-5.1c-1.3,0.4-2.5,0.7-3.8,1.1
				c-0.2-0.5-0.5-0.9-0.7-1.3c2.9-0.6,5.8-1.5,8.6-2.7h-8.1V12h7.4v-1.5h-5.6V9.3h5.5V7.9h-6.3V3.8h15.3V8H197v1.4h4.4v1
				c0.7-0.5,1.4-1.1,2.1-1.7l1.2,0.7c-1,1-2.2,1.9-3.4,2.7h4.4v1.2L199.3,13.2L199.3,13.2z M193.9,5h-3.2v1.9h3.2V5z M202.4,15.6
				h-8.7V17h8.7V15.6z M202.4,19.4v-1.4h-8.7v1.4H202.4z M198.5,6.8V4.9h-3.2v1.9H198.5z M198.7,11.9c0.8-0.5,1.7-0.9,2.5-1.4h-4.1
				V12L198.7,11.9L198.7,11.9z M199.9,6.8h3.3V4.9h-3.3V6.8z"/>
		</g>
		<g>
			<path class="st1" d="M53.2,37.2c-1.8,0.5-3.8,1.2-5.3,1.6l-0.3-1.4c0.6-0.2,1.4-0.4,2.3-0.6v-5.6h-1.8v-1.4h1.8v-4.3h-2.1v-1.4
				h5.3v1.4h-2V30h1.7v1.4h-1.7v5.2l1.8-0.5L53.2,37.2z M65.4,36.3c-0.9,0.5-1.8,1.1-2.8,1.5c1,0.9,2.2,1.5,3.4,1.9
				c-0.4,0.4-0.6,0.7-0.9,1.1c-2.6-0.9-4.7-3-5.6-5.6c-0.7,0.6-1.5,1.3-2.4,1.7v2.3l3.3-0.7c0,0.4,0,0.7,0,1.1
				c-3.8,1-4.3,1.2-4.7,1.4c-0.1-0.4-0.3-0.7-0.5-1.1c0.5-0.3,0.7-0.7,0.6-1.3v-1c-0.7,0.4-1.4,0.6-2.2,0.9c-0.3-0.4-0.5-0.7-0.8-1
				c1.8-0.5,3.5-1.3,5-2.3h-3v-4.1h9.4v4.1h-3.6c0.3,0.7,0.7,1.4,1.2,1.9c0.9-0.5,1.7-1,2.5-1.6L65.4,36.3z M65.6,30H53.7v-1.2h11.9
				V30L65.6,30z M65,27.8H54.5v-4.1H65V27.8z M57.7,24.7h-1.9v2h1.9V24.7z M56.4,34.1H63v-1.9h-6.6V34.1z M60.7,24.7h-2v2h2V24.7z
				 M63.6,24.7h-2v2h2V24.7z"/>
			<path class="st1" d="M74,36c-2,0.8-4.1,1.6-5.8,2.3l-0.5-1.5c0.7-0.2,1.5-0.5,2.5-0.9v-6.9h-2.2v-1.3h2.2v-4.5h1.4v4.6h1.9v1.4
				h-1.9v6.4l2.1-0.8L74,36z M83.4,39.6c0.3,0,0.5,0,0.7-0.1c0.2-0.1,0.4-0.2,0.4-0.5c0-0.3,0.1-0.9,0.1-1.7
				c0.4,0.3,0.7,0.5,1.2,0.6c0,0.6-0.1,1.3-0.3,1.9c-0.2,0.3-0.5,0.5-0.7,0.6c-0.4,0.1-0.8,0.2-1.2,0.2h-1.4c-0.5,0-0.9-0.1-1.4-0.4
				c-0.4-0.3-0.5-0.5-0.5-1.6v-2.8h-1.8c-0.4,2.9-1.4,4.3-5,5.2c-0.2-0.5-0.5-0.8-0.8-1.2c3.2-0.6,4.1-1.8,4.3-4.1h-2.1v-5.6h9v5.6
				h-2.4v3.1c-0.1,0.2,0,0.5,0.2,0.5s0.4,0.1,0.5,0.1H83.4L83.4,39.6z M85.2,29.2h-11v-1.3H77c-0.2-0.6-0.4-1.3-0.6-1.9l1.2-0.3
				c0.3,0.6,0.5,1.3,0.7,2l-0.7,0.2h3.2c0.4-0.7,0.6-1.4,0.8-2.1l1.4,0.3c-0.3,0.6-0.6,1.3-0.9,1.8h3L85.2,29.2L85.2,29.2z
				 M84.7,25.6h-9.9v-1.3h4.3c-0.2-0.5-0.4-0.9-0.5-1.4l1.4-0.3c0.3,0.5,0.5,1,0.7,1.5h4.1L84.7,25.6L84.7,25.6z M76.5,32.5h6.2
				v-1.3h-6.2V32.5z M76.5,34.8h6.2v-1.4h-6.2V34.8z"/>
			<path class="st1" d="M93,33.7c-0.3-0.6-0.8-1.8-1.4-2.7v9.9h-1.2v-9.7c-0.5,2-1.2,3.8-2.1,5.6c-0.2-0.5-0.4-1-0.6-1.4
				c1.3-2.3,2.1-4.7,2.5-7.2h-2.2v-1.4h2.3v-3.8h1.2v3.8h1.8v1.1c2.3-1.2,4.1-2.9,5.5-5l1.4,0.5c-0.1,0.2-0.3,0.5-0.5,0.7
				c1.8,1.4,3.8,2.6,5.9,3.4c-0.3,0.5-0.5,0.9-0.6,1.4c-2.2-1-4.2-2.3-6.1-3.8c-0.8,0.9-1.7,1.8-2.7,2.5h5.9v1.2h-5.9v-1.3
				c-0.6,0.5-1.4,1-2.2,1.4c-0.3-0.4-0.5-0.6-0.9-0.9v0.3h-1.8v1.3c0.5,0.7,1.7,2.8,2.1,3.2L93,33.7z M97.5,35.4
				c-0.2,0.5-0.4,1-0.5,1.4c0.8,0.5,1.5,1.1,2.3,1.7l-0.8,1c-0.6-0.6-1.3-1.2-2-1.7c-0.7,1.3-1.8,2.3-3,3.2c-0.3-0.4-0.6-0.7-1-1
				c1.8-1.1,3.2-2.9,3.8-5L97.5,35.4z M94.4,29.9h4.4v4.8h-4.4V29.9z M95.6,33.6h2.2V31h-2.2V33.6L95.6,33.6z M103,35.3
				c-0.1,0.6-0.3,1.2-0.5,1.7c1.3,0.7,2.3,1.6,3.4,2.6l-0.9,1c-0.9-0.9-2-1.7-3.1-2.5c-0.5,1.1-1.4,2.1-2.4,2.8
				c-0.3-0.4-0.6-0.7-1-1c1.6-1.2,2.8-2.9,3.1-4.9L103,35.3z M100.1,29.9h4.5v4.8h-4.5V29.9z M101.2,33.6h2.2V31h-2.2V33.6z"/>
			<path class="st1" d="M107.6,39.3c0.5-1.4,0.7-2.9,0.9-4.3l0.8,0.3c-0.2,1.4-0.5,3-0.9,4.4L107.6,39.3z M115.3,33.3
				c-0.2,4.9-0.3,6.5-0.7,7c-0.3,0.4-0.6,0.5-1,0.5c-0.5,0-1,0-1.5,0c0-0.4-0.2-0.8-0.4-1.2c0.5,0,0.9,0.1,1.4,0.1
				c0.2,0,0.4-0.1,0.5-0.2c0.3-0.4,0.4-1.7,0.5-5.6h-5.4V23.8h6.7v1.3h-2.5v1.8h2.1V28h-2.1v1.7h2.1v1.2h-2.1v1.9h2.5V33.3
				L115.3,33.3z M110.5,35.3c0.1,1.1,0.3,2.6,0.3,3.6L110,39c0-1.2-0.1-2.4-0.3-3.6L110.5,35.3z M109.9,25.1v1.8h1.8v-1.8H109.9z
				 M111.7,28h-1.8v1.7h1.8V28L111.7,28z M109.9,32.8h1.8v-1.9h-1.8V32.8z M111.6,35c0.4,1.1,0.6,2.1,0.8,3.2l-0.7,0.2
				c-0.2-1.1-0.5-2.2-0.7-3.2L111.6,35z M113.2,37.5c-0.4-0.9-0.7-1.8-1.1-2.6l0.7-0.3c0.5,0.8,0.8,1.7,1.1,2.6L113.2,37.5z
				 M117.6,27.6c-0.5,0.5-1.1,0.8-1.7,1.2c-0.3-0.4-0.6-0.6-1-0.9c2.2-1.3,4-3,5.3-5.1l1.4,0.5c-0.1,0.2-0.3,0.5-0.4,0.6
				c1.4,1.4,3,2.7,4.8,3.6c-0.3,0.4-0.5,0.8-0.6,1.3c-0.6-0.4-1.3-0.7-1.8-1.2v1.1h-5.9L117.6,27.6L117.6,27.6z M118.8,35.4
				c-0.1,0.5-0.3,1.1-0.5,1.6c0.8,0.5,1.5,1.1,2.2,1.7l-0.8,1c-0.5-0.6-1.2-1.1-1.9-1.5c-0.5,1.1-1.2,2.1-2,2.9
				c-0.3-0.3-0.6-0.6-1-0.9c1.4-1.4,2.3-3.1,2.6-5L118.8,35.4z M116.1,30h3.9v4.6h-3.9V30z M117.2,33.5h1.8V31h-1.8V33.5z
				 M123.3,27.2c-1-0.8-2-1.6-2.9-2.6c-0.7,1-1.6,1.8-2.5,2.6H123.3L123.3,27.2z M123.7,35.2c-0.1,0.7-0.4,1.4-0.5,2.2
				c0.9,0.6,1.8,1.4,2.6,2.1l-0.9,1c-0.6-0.7-1.4-1.4-2.2-2c-0.5,0.9-1,1.6-1.7,2.3c-0.4-0.3-0.7-0.6-1.1-0.9c1.4-1.3,2.3-3.1,2.6-5
				L123.7,35.2z M121,30h4.1v4.6H121V30z M122,33.6h1.9v-2.5H122V33.6z"/>
			<path class="st1" d="M130.3,33.7c-0.1,2.4-0.5,5.3-1.6,7.4c-0.4-0.4-0.7-0.6-1.2-0.9c1.3-2.4,1.4-5.9,1.4-8.4v-6.9
				c2.3-0.2,4.6-0.7,6.8-1.5l1,1.2c-2,0.7-4.1,1.2-6.2,1.4v1.9h5.3v5.9H130.3L130.3,33.7z M130.3,29.2v3.2h3.9v-3.2H130.3z
				 M145.8,31h-2.3v10H142V31H139v0.5c0,3-0.4,7-2.9,9.5c-0.4-0.4-0.7-0.7-1.2-1c2.3-2.4,2.6-5.9,2.6-8.6v-6.6
				c2.3-0.3,4.7-0.9,6.9-1.7l1,1.3c-2.1,0.8-4.2,1.3-6.5,1.6v3.6h6.8V31L145.8,31z"/>
		</g>
	</g>
</g>
<g>
	<path class="st1" d="M257.2,31.1c-1.6,0.9-3.5,1.9-5.1,2.6c1.8,1.5,3.9,2.6,6.1,3.2c-0.8,0.8-1.5,1.8-2.1,2.8
		C251,38,247,34,245.2,29c-1.3,1.2-2.8,2.2-4.3,3.1v4l6-1.3c-0.1,0.9-0.1,1.8,0,2.7c-7.3,1.8-8.5,2.2-9.2,2.6l0,0
		c-0.3-0.9-0.7-1.8-1.2-2.5c1-0.5,1.5-1.5,1.4-2.6v-1.3c-1.2,0.6-2.5,1.1-3.8,1.5c-0.5-0.8-1.1-1.6-1.7-2.2c-3.6,1-7.2,2.2-10.2,3
		l-0.7-3.3c1.3-0.3,2.7-0.7,4.2-1V21.1h-3.4V18h3.4V9.9H222V6.7h10.5V10H229v8.1h3.1v3.1H229v9.5l3.3-1l0.4,2.8
		c3.1-0.8,6.1-2.2,8.9-3.9h-5.2v-8.3h18.9v8.3h-7c0.5,1.2,1.2,2.3,2,3.3c1.6-0.9,3-1.9,4.5-2.9L257.2,31.1z M257.5,18.5h-23.6v-2.9
		h23.6V18.5z M256.2,13.9h-20.8V5.4h20.8V13.9z M241.5,8h-3.1v3.4h3.1V8z M239.6,25.9h12.1v-3h-12.1V25.9L239.6,25.9z M247.2,8H244
		v3.4h3.2V8z M253,8h-3.3v3.4h3.3V8z"/>
	<path class="st1" d="M274.2,30.5c-4,1.6-8.3,3.4-11.6,4.7l-1.2-3.7c1.3-0.4,2.9-0.9,4.7-1.6V17H262v-3.5h4.1V4.6h3.6v8.9h3.6V17
		h-3.6v11.6l3.8-1.4L274.2,30.5z M292.6,36.7c0.4,0,0.8,0,1.1-0.1c0.3-0.2,0.5-0.5,0.5-0.8c0.1-1,0.2-2.1,0.2-3.1
		c0.9,0.7,1.8,1.2,2.9,1.5c0,1.3-0.2,2.5-0.5,3.7c-0.3,0.6-0.9,1.1-1.5,1.3c-0.8,0.2-1.6,0.4-2.4,0.4h-2.6c-1,0-2-0.3-2.8-0.8
		c-0.7-0.5-1-1.3-1-3.5V30h-3.1c-0.7,5.4-2.7,8.5-9.9,10.3c-0.4-1.1-1.1-2-1.9-2.9c6.2-1.2,7.8-3.3,8.3-7.4h-3.7V18.6h18.1V30h-4.4
		v5.5c-0.1,0.4,0,0.8,0.3,1s0.6,0.2,0.9,0.2H292.6L292.6,36.7z M296.3,16.9h-21.8v-3.1h5.2c-0.3-1-0.7-2.2-1-3.3l2.9-0.7
		c0.6,1.2,1,2.4,1.3,3.7l-0.8,0.2h5.5c0.5-1.2,1-2.7,1.4-3.8l3.3,0.7c-0.5,1-1,2.2-1.5,3.1h5.4L296.3,16.9L296.3,16.9z M295.3,9.8
		h-19.6v-3h8.1c-0.3-0.8-0.5-1.6-0.9-2.2l3.4-0.7c0.5,0.9,0.9,1.9,1.3,2.9h7.8L295.3,9.8L295.3,9.8z M279.5,23.1h11.3V21h-11.3V23.1
		L279.5,23.1z M279.5,27.6h11.3v-2.2h-11.3V27.6L279.5,27.6z"/>
	<path class="st1" d="M311.7,25.9c-0.7-1.7-1.5-3.3-2.3-4.9v19h-2.9V21.8c-0.8,3.5-2,6.9-3.7,10c-0.4-1.2-0.9-2.5-1.5-3.6
		c1.9-3,3.8-8.5,4.7-13.4h-3.8v-3.4h4.4V4.2h2.9v7.3h3.3v1.8c4.3-2.3,7.9-5.5,10.6-9.6l3.5,1.2c-0.3,0.4-0.5,0.9-0.8,1.3
		c3.4,2.8,7.3,5,11.4,6.4c-0.7,1.1-1.2,2.2-1.5,3.4c-1.9-0.9-3.8-1.9-5.6-3v2.7h-11.5v-2.3c-1.3,0.9-2.7,1.8-4.1,2.6
		c-0.6-0.8-1.3-1.5-2-2.1v1h-3.2v2.2c1,1.4,3.4,5.2,4,6.3L311.7,25.9z M320.8,29.1c-0.3,0.9-0.6,1.8-1,2.7c1.5,0.9,2.9,2,4.2,3.1
		l-2,2.4c-1.1-1.1-2.3-2.1-3.6-3c-1.5,2.4-3.4,4.4-5.7,6c-0.7-0.9-1.5-1.7-2.4-2.3c3.6-2.1,6.2-5.5,7.3-9.4L320.8,29.1z M314.4,18.2
		h9v9.6h-9V18.2z M317.1,25.2h3.5v-4.5h-3.5V25.2L317.1,25.2z M330,12.9c-2.1-1.3-4.1-2.7-5.9-4.4c-1.4,1.6-2.9,3-4.6,4.3L330,12.9
		L330,12.9z M331.7,28.9c-0.2,1.1-0.5,2.2-0.9,3.3c2.3,1.5,4.4,3.1,6.5,4.9l-2.2,2.5c-1.7-1.7-3.6-3.3-5.6-4.7
		c-1.1,2.1-2.7,3.9-4.5,5.2c-0.7-0.9-1.5-1.7-2.4-2.3c3.2-2.2,5.3-5.6,5.9-9.4L331.7,28.9z M325.5,18.1h9.2v9.6h-9.2V18.1z
		 M328.2,25.2h3.6v-4.5h-3.6V25.2z"/>
	<path class="st1" d="M342.7,14.9c2.3,0.8,4.4,2,6.4,3.5l-2.1,2.9c-1.9-1.5-4-2.8-6.3-3.8L342.7,14.9z M346.7,25.3l3,1.9
		c-1.4,4.1-3.3,8.7-4.9,12.4l-3.3-1.9C343.4,33.7,345.2,29.5,346.7,25.3L346.7,25.3z M344.4,4.5c2.2,0.9,4.3,2.2,6.2,3.8l-2.2,2.9
		c-1.8-1.6-3.8-3-6-4.1L344.4,4.5z M356.1,32.1c-1.3,3-3.1,5.8-5.4,8.1c-0.9-0.7-1.9-1.4-2.9-2c2.1-2,3.8-4.4,4.9-7.1L356.1,32.1z
		 M363,5.8v24.8h-11.5V5.8H363z M354.6,13.1h5.2V8.9h-5.2V13.1L354.6,13.1z M354.6,20.3h5.2v-4.2h-5.2V20.3z M354.6,27.5h5.2v-4.2
		h-5.2V27.5z M360.9,31c1.6,1.9,3,3.9,4.3,6l-2.9,1.8c-1.2-2.2-2.6-4.3-4.2-6.2L360.9,31z M368.6,8.1v22.3h-3.1V8.1H368.6L368.6,8.1
		z M375.4,4.1v31.6c0,2-0.4,3.1-1.6,3.6c-1.2,0.6-3.1,0.7-6.3,0.7c-0.2-1.2-0.5-2.4-1-3.5c2.2,0.1,4.2,0.1,4.8,0
		c0.4,0.1,0.7-0.1,0.8-0.5c0-0.1,0-0.2,0-0.3V4.1H375.4L375.4,4.1z"/>
	<path class="st1" d="M394.6,36c0,1.8-0.3,2.9-1.4,3.5c-1.1,0.6-2.7,0.7-5.3,0.7c-0.1-1.2-0.5-2.4-1-3.5c1.6,0.1,3.1,0,3.7,0
		c0.3,0,0.6-0.2,0.6-0.6V36v-8.8H386c-0.4,4.6-1,9.4-2.8,13.1c-0.9-0.7-1.9-1.3-3-1.7c2.6-5.4,2.8-13.2,2.8-19v-14h11.7L394.6,36
		L394.6,36z M391.2,23.6v-5.8h-5v1.6c0,1.3,0,2.7-0.1,4.1L391.2,23.6L391.2,23.6z M386.2,8.9v5.6h5V8.9H386.2z M415.6,19.6
		c-0.8,4.7-2.5,9.1-5.1,13c1.8,1.9,3.9,3.5,6.3,4.6c-0.9,0.8-1.7,1.8-2.3,2.8c-2.3-1.2-4.3-2.9-6-4.8c-1.6,1.8-3.4,3.4-5.5,4.6
		c-0.6-1-1.3-1.9-2.1-2.6V40h-3.5V5.6h17.1v7.5c0,1.7-0.4,2.6-1.7,3.1c-1.4,0.5-3.5,0.5-6.3,0.5c-0.2-1.1-0.6-2.2-1.1-3.1
		c2.1,0.1,4.4,0.1,4.9,0s0.8-0.1,0.8-0.6V9H401v9.9h12l0.6-0.1L415.6,19.6z M400.9,37.3c2.1-1.2,4-2.7,5.6-4.6
		c-2.1-3.2-3.8-6.7-4.8-10.4H401L400.9,37.3L400.9,37.3z M404.7,22.3c0.9,2.7,2.1,5.2,3.7,7.6c1.4-2.4,2.6-4.9,3.3-7.6H404.7z"/>
	<path class="st1" d="M452.8,11.2c-1,2.4-2.5,4.5-4.4,6.3c2.5,1.4,5.1,2.4,7.9,2.9c-0.9,0.9-1.6,1.9-2.2,3c-3-0.8-5.9-2-8.5-3.8
		c-2.6,1.6-5.4,2.9-8.3,3.7c-0.3-0.6-0.7-1.1-1-1.6c-0.6,2.1-1.3,4.2-2.1,6.3l-2.5-1.3c0.7-1.9,1.3-3.9,1.7-5.9h-3v15
		c0,1.8-0.3,2.7-1.4,3.4c-1.2,0.6-2.7,0.6-5.2,0.6c-0.2-1.2-0.5-2.4-1-3.5c1.6,0.1,3.1,0.1,3.6,0s0.6-0.1,0.6-0.6V25.3
		c-1.2,3.1-3,6-5.2,8.5c-0.5-1.2-1.1-2.4-1.8-3.5c2.7-2.7,4.7-5.9,6-9.4h-5.4v-3.1h10c-2.6-1.8-5.4-3.4-8.4-4.6l2.3-2.3
		c1,0.4,2.3,1,3.5,1.6c1.2-1,2.3-2.1,3.3-3.3H421V5.9h12.9l0.6-0.1l2.3,1.4c-1.7,2.5-3.7,4.7-6.1,6.5c1.1,0.6,2.1,1.3,3.1,2.1
		l-1.7,1.8h2.4l0.5-0.2l2.2,0.8c-0.1,0.5-0.2,1-0.4,1.6c2.1-0.6,4.1-1.4,6-2.5c-1.3-1.2-2.5-2.6-3.5-4.1c-0.7,0.8-1.5,1.6-2.3,2.3
		c-0.9-0.8-2-1.5-3-2.1c3.3-2.4,5.8-5.7,7.4-9.4l3.4,0.9c-0.5,1.1-1,2.1-1.6,3.1h12.3v3.1L452.8,11.2L452.8,11.2z M454.8,25.8
		c0,0,0,0.9-0.1,1.4c-0.7,7-1.4,10-2.5,11.2c-0.7,0.7-1.6,1.1-2.6,1.2c-1.4,0.1-2.9,0.1-4.4,0c-0.1-1.2-0.4-2.3-1-3.4
		c1.5,0.2,3,0.2,3.6,0.2c0.5,0.1,0.9-0.1,1.3-0.4c0.7-0.6,1.2-2.6,1.7-7.2h-5.7c-1.3,4.8-4.1,8.7-10.3,11.2c-0.6-1.1-1.3-2-2.2-2.8
		c5.1-1.8,7.5-4.8,8.7-8.4H436v-3.1h6.3c0.2-1.2,0.4-2.4,0.5-3.7h3.6c-0.1,1.3-0.3,2.5-0.5,3.7L454.8,25.8L454.8,25.8z M441.5,11.2
		c1.1,1.6,2.4,3.1,4,4.3c1.4-1.2,2.5-2.7,3.3-4.3H441.5z"/>
	<path class="st1" d="M463.8,29.8c-0.3,3.2-0.9,6.3-1.8,9.4c-0.9-0.4-1.7-0.8-2.7-1c0.9-2.9,1.5-5.9,1.7-8.9L463.8,29.8z
		 M471.5,19.2c1,2.4,1.9,4.8,2.6,7.3l-2.6,1c-0.1-0.6-0.2-1.2-0.4-1.8c-8.3,1.3-9.4,1.6-10.3,2c-0.2-1-0.6-2.1-1-3.1
		c0.8-0.2,1.7-1.2,2.8-2.7c1-1.3,2-2.6,2.9-4c-3.6,0.4-4.4,0.6-5,0.9c-0.3-1-0.6-2-1-3c0.9-0.5,1.6-1.2,2.1-2.1
		c1.9-3.1,3.5-6.3,4.8-9.7l3,1.3c-1.6,3.5-3.4,6.9-5.6,10.1l3.5-0.3c1-1.8,2-3.6,2.8-5.4l2.7,1.7c-2.3,4.5-5.1,8.7-8.3,12.6l5.6-0.8
		c-0.4-1-0.7-2.2-1.1-3.1L471.5,19.2z M467.7,29.1c0.5,2.7,0.9,5.4,1,8.1l-2.6,0.7c-0.1-2.8-0.4-5.5-0.9-8.3L467.7,29.1z
		 M471.8,28.1c0.9,2.4,1.7,4.9,2.3,7.4l-2.5,0.9c-0.5-2.6-1.2-5.1-2.1-7.5L471.8,28.1z M494.6,36.2c0,1.8-0.4,2.7-1.4,3.2
		s-2.7,0.6-5.1,0.6c-0.2-1.1-0.5-2.1-1-3.1c1.5,0.1,3.1,0.1,3.6,0.1c0.3,0.1,0.6-0.2,0.7-0.5c0-0.1,0-0.2,0-0.2V9h-13.8v31h-3.2V5.9
		h20.2V36.2z M487.8,30.1c0.8,0,1.5-0.1,2.3-0.2c0,0.8,0.1,1.8,0.2,2.6c-0.8,0.2-1.6,0.2-2.5,0.2h-4.2c-2.9,0-3.5-1-3.5-3.9v-3.1
		h-1.3v-2.9h4.7c-0.4-1-0.8-2-1.3-3l2-0.7h-5.8v-2.8h6.9c0.6-2,1.2-4.1,1.6-6.2l2.6,0.7c-0.5,1.8-1.2,3.9-1.8,5.5h2.7v2.8h-5.7
		c0.6,1,1.1,2.1,1.5,3.1l-1.4,0.6h5.2v2.9h-7.1v3.2c0,0.9,0.2,1.3,0.9,1.3L487.8,30.1L487.8,30.1z M481.7,10
		c0.9,1.7,1.5,3.5,1.9,5.4l-2.3,0.8c-0.3-1.9-0.9-3.7-1.8-5.4L481.7,10z"/>
</g>
<g id="LOGO_BG">
	<path id="路径_34" class="st1" d="M43.5,22c0,11.9-9.6,21.5-21.5,21.5l0,0C10.1,43.5,0.5,33.9,0.5,22l0,0
		C0.5,10.1,10.1,0.5,22,0.5S43.5,10.1,43.5,22L43.5,22z"/>
	<g id="组_23">
		<path id="路径_35" class="st2" d="M41.5,30.2C37,41,24.6,46.1,13.8,41.6c-5.1-2.1-9.1-6.1-11.3-11.1h16.8l6-8.7
			c0.1-0.2,0.3-0.3,0.5-0.2c0.1,0,0.1,0.1,0.2,0.1l7.1,8.6L41.5,30.2"/>
		<path id="路径_36" class="st3" d="M41.5,30.2C37,41,24.6,46.1,13.8,41.6c-5.1-2.1-9.1-6.1-11.3-11.1h16.8l6-8.7
			c0.1-0.2,0.3-0.3,0.5-0.2c0.1,0,0.1,0.1,0.2,0.1l7.1,8.6L41.5,30.2"/>
	</g>
	<path id="路径_37" class="st4" d="M42.8,25.7c2-11.5-5.7-22.5-17.2-24.5l0,0C14.1-0.8,3.1,6.9,1.1,18.4l0,0
		c-0.2,1.2-0.3,2.4-0.3,3.7c0,0.3,0,0.5,0,0.8h7.4l8.4-12.8c0,0,0.3-0.9,1.2-0.2c0.7,0.6,1.4,1.3,2,2l-8.8,13H0.7L1,26.3h10.7
		L24.8,6.6c0.2-0.4,0.6-0.6,1-0.5c0.2,0.1,0.3,0.2,0.4,0.3c0.8,1,14.5,19.4,14.5,19.4L42.8,25.7z"/>
	<path id="路径_38" class="st5" d="M42.8,25.7c2-11.5-5.7-22.5-17.2-24.5l0,0C14.1-0.8,3.1,6.9,1.1,18.4l0,0
		c-0.2,1.2-0.3,2.4-0.3,3.7c0,0.3,0,0.5,0,0.8h7.4l8.4-12.8c0,0,0.3-0.9,1.2-0.2c0.7,0.6,1.4,1.3,2,2l-8.8,13H0.7L1,26.3h10.7
		L24.8,6.6c0.2-0.4,0.6-0.6,1-0.5c0.2,0.1,0.3,0.2,0.4,0.3c0.8,1,14.5,19.4,14.5,19.4L42.8,25.7z"/>
	<g id="组_24">
		<path id="路径_39" class="st2" d="M1.4,27.6h13.9l9.5-14.3c0.2-0.3,0.6-0.3,0.9-0.1c0.1,0.1,0.1,0.1,0.2,0.2
			c0.6,0.7,11.3,13.9,11.3,13.9l0.4,0.4h4.9l-0.3,0.9h-5.1L25.7,14.9c0,0-0.3-0.6-0.8,0.2s-8.7,13.5-8.7,13.5H1.8L1.4,27.6z"/>
		<path id="路径_40" class="st3" d="M1.4,27.6h13.9l9.5-14.3c0.2-0.3,0.6-0.3,0.9-0.1c0.1,0.1,0.1,0.1,0.2,0.2
			c0.6,0.7,11.3,13.9,11.3,13.9l0.4,0.4h4.9l-0.3,0.9h-5.1L25.7,14.9c0,0-0.3-0.6-0.8,0.2s-8.7,13.5-8.7,13.5H1.8L1.4,27.6z"/>
	</g>
	<path id="路径_2467" class="st6" d="M43.5,22c0,11.9-9.6,21.5-21.5,21.5l0,0C10.1,43.5,0.5,33.9,0.5,22l0,0
		C0.5,10.1,10.1,0.5,22,0.5S43.5,10.1,43.5,22L43.5,22z"/>
</g>
</svg>
